<svg width="24" height="24" viewBox="0 0 24 24" fill="none" xmlns="http://www.w3.org/2000/svg">
<path fill-rule="evenodd" clip-rule="evenodd" d="M13.6632 11.9994L18.6543 7.00834C19.1137 6.54891 19.1137 5.80401 18.6543 5.34464C18.1948 4.88521 17.45 4.88521 16.9906 5.34464L11.9994 10.3358L7.00823 5.34458C6.54879 4.88514 5.80396 4.88514 5.34453 5.34458C4.88516 5.80401 4.88516 6.54891 5.34453 7.00828L10.3357 11.9994L5.34453 16.9905C4.88516 17.45 4.88516 18.1949 5.34453 18.6542C5.80396 19.1137 6.54879 19.1137 7.00823 18.6542L11.9994 13.6631L16.9906 18.6542C17.4499 19.1137 18.1948 19.1137 18.6543 18.6542C19.1137 18.1948 19.1137 17.45 18.6543 16.9905L13.6632 11.9994Z" fill="#22313F"/>
</svg>
