<svg width="24" height="24" viewBox="0 0 24 24" fill="none" xmlns="http://www.w3.org/2000/svg">
<path fill-rule="evenodd" clip-rule="evenodd" d="M12 2C6.5 2 2 6.5 2 12C2 17.5 6.5 22 12 22C17.5 22 22 17.5 22 12C22 6.5 17.5 2 12 2ZM10.8839 15.5161C10.3957 16.0042 9.60428 16.0042 9.11611 15.5161L7 13.4C6.6134 13.0134 6.6134 12.3866 7 12C7.3866 11.6134 8.0134 11.6134 8.4 12L10 13.6L15.6 8C15.9866 7.6134 16.6134 7.6134 17 8C17.3866 8.3866 17.3866 9.0134 17 9.4L10.8839 15.5161Z" fill="#2F6BFF"/>
</svg>
